<?xml version="1.0" encoding="UTF-8"?>
<svg version="1.1" xmlns="http://www.w3.org/2000/svg" width="474" height="359">
<path d="M0 0 C14.78898123 12.52910239 27.15204746 26.13699844 35.17578125 43.859375 C35.47605225 44.52235596 35.77632324 45.18533691 36.08569336 45.8684082 C37.55703843 49.34362952 38.31386507 52.00037406 38.66796875 55.81640625 C39.25352232 61.84345208 39.25352232 61.84345208 42.30078125 66.859375 C49.58207138 71.35442873 57.98162931 73.82774483 66.01464844 76.64355469 C78.44112796 81.24116747 88.70673698 88.88029375 98.30078125 97.859375 C98.79980957 98.32134277 99.29883789 98.78331055 99.81298828 99.25927734 C106.22409705 105.24647647 111.70314875 111.38822218 116.30078125 118.859375 C116.65914063 119.43816406 117.0175 120.01695312 117.38671875 120.61328125 C133.13193911 146.34456418 136.56649746 176.27858328 129.6875 205.69921875 C124.04450887 227.47586237 116.11474787 244.85601956 100.30078125 260.859375 C99.6459375 261.58640625 98.99109375 262.3134375 98.31640625 263.0625 C89.13317525 273.03062254 76.39191179 279.25346024 64.26757812 284.93481445 C62.92639695 285.56528281 61.59451298 286.21582296 60.27148438 286.88354492 C53.87018178 289.9800804 47.39530223 291.29397267 40.42578125 292.546875 C39.31847656 292.75892578 38.21117187 292.97097656 37.0703125 293.18945312 C26.65869009 295.12863309 16.41051726 296.01117685 5.82487488 295.99308777 C4.83052832 295.99535333 3.83618177 295.99761888 2.8117035 295.99995309 C-0.48858024 296.00623486 -3.7888223 296.00546748 -7.08911133 296.00463867 C-9.4688014 296.00763392 -11.84849098 296.0110373 -14.22817993 296.01481628 C-20.67301766 296.02362626 -27.11784209 296.02599322 -33.56268525 296.02663207 C-37.59872879 296.02712801 -41.63477002 296.02941959 -45.67081261 296.03212929 C-59.05207455 296.04092819 -72.4333285 296.04555022 -85.81459335 296.04479881 C-86.53440792 296.04475886 -87.25422248 296.0447189 -87.99584961 296.04467773 C-88.71655888 296.04463685 -89.43726816 296.04459597 -90.1798171 296.04455385 C-101.83311627 296.04414829 -113.48638299 296.05369715 -125.13967279 296.0678161 C-137.14764133 296.0822481 -149.15559412 296.08908246 -161.16357154 296.08822232 C-167.88785456 296.08789255 -174.61209854 296.09074158 -181.33637428 296.10140038 C-187.67218009 296.11116932 -194.0079148 296.11110101 -200.3437233 296.10388374 C-202.65173765 296.10284852 -204.95975664 296.10513647 -207.26776314 296.1112442 C-237.07373101 296.1849253 -261.90062884 295.90462739 -284.30029297 274.20703125 C-285.55294639 273.00028659 -286.82969812 271.81867438 -288.109375 270.640625 C-310.40478379 249.56418918 -320.74907836 219.24077277 -321.98046875 189.1640625 C-322.58817173 164.87883641 -315.81901919 143.39059274 -299.69921875 124.859375 C-299.24820801 124.32908691 -298.79719727 123.79879883 -298.33251953 123.25244141 C-281.41785118 103.47379264 -256.9298025 88.16038469 -230.5859375 85.65869141 C-219.87418859 84.90477835 -211.63367916 85.93811515 -203.13671875 92.984375 C-199.3185335 97.96461663 -199.98372039 104.92789364 -200.69921875 110.859375 C-202.77168743 115.7942287 -206.51155312 118.06117674 -211.32421875 120.046875 C-216.59175523 121.74538676 -221.95757586 122.71820606 -227.38671875 123.734375 C-246.43177813 127.30443334 -265.27250765 134.68731622 -276.94921875 151.046875 C-287.22650521 167.7474655 -290.94289736 188.02033852 -287.21435547 207.37646484 C-285.90986163 212.1547582 -283.95240487 216.45815145 -281.69921875 220.859375 C-281.18101562 221.92027344 -280.6628125 222.98117187 -280.12890625 224.07421875 C-271.48805646 240.29146583 -258.31107101 251.13639828 -240.92578125 256.8515625 C-230.60201167 259.58055597 -219.97925636 260.15830707 -209.35449219 260.17822266 C-208.09374721 260.18825695 -206.83300222 260.19829124 -205.53405285 260.20862961 C-202.09572357 260.23569254 -198.65743452 260.25100419 -195.21902728 260.26404142 C-191.53257541 260.2800744 -187.84620126 260.30712669 -184.1598053 260.33267212 C-177.04495811 260.38013684 -169.93009581 260.41713988 -162.81516665 260.44979775 C-157.08219343 260.47619202 -151.34924691 260.50593138 -145.61630249 260.53796387 C-127.57348494 260.63840495 -109.53065316 260.72561095 -91.48771 260.80007172 C-81.49192101 260.84156758 -71.49620997 260.89083692 -61.50048828 260.94628906 C-49.91470015 261.01017267 -38.32896144 261.05764221 -26.74304199 261.08953857 C-22.61693 261.10126442 -18.49092721 261.11947883 -14.36486816 261.14337158 C-9.58571525 261.17051606 -4.80675285 261.1829112 -0.02752495 261.18357468 C1.67661669 261.18612661 3.38076066 261.19364758 5.08485222 261.20695877 C26.67172518 261.36769539 43.96901823 254.98107594 62.86328125 244.859375 C63.77916016 244.373479 64.69503906 243.88758301 65.63867188 243.38696289 C80.61316464 235.15784832 90.24563858 222.17460018 95.30078125 205.859375 C101.3395138 182.80461875 100.23214072 159.86341671 88.3125 139.0234375 C75.22596164 118.44072667 58.22536104 106.79799955 34.61328125 101.109375 C28.21965304 99.75533594 21.77234032 98.75967373 15.30078125 97.859375 C12.79616822 91.60153656 11.09105908 85.33657751 9.48828125 78.796875 C3.69744901 56.08634944 -5.90863769 35.48318096 -26.69921875 22.859375 C-41.48836619 15.33446214 -56.50466065 11.68258691 -73.01171875 11.671875 C-74.48415039 11.65350586 -74.48415039 11.65350586 -75.98632812 11.63476562 C-85.43518411 11.61600549 -93.87890668 13.04092744 -102.51171875 16.921875 C-103.53084351 17.37759888 -103.53084351 17.37759888 -104.57055664 17.8425293 C-124.55790723 27.12045241 -138.02170733 43.32525217 -145.69921875 63.859375 C-148.69801624 72.49712699 -150.62777835 81.00056486 -151.88671875 90.046875 C-152.05107422 91.12517578 -152.21542969 92.20347656 -152.38476562 93.31445312 C-155.09510122 112.06734194 -154.95572987 131.07800886 -155.26171875 149.984375 C-155.30502481 152.50391166 -155.3486424 155.02344299 -155.39257812 157.54296875 C-155.49895117 163.6483803 -155.59895328 169.75384805 -155.69921875 175.859375 C-137.87921875 176.354375 -137.87921875 176.354375 -119.69921875 176.859375 C-118.69921875 188.859375 -118.69921875 188.859375 -121.63574219 193.10009766 C-122.96678118 194.37807457 -124.32226538 195.63100649 -125.69921875 196.859375 C-126.99498741 198.1856907 -128.28430775 199.51833426 -129.56738281 200.85693359 C-130.94719235 202.24322997 -132.32978056 203.62676509 -133.71484375 205.0078125 C-134.45248962 205.7464151 -135.1901355 206.4850177 -135.95013428 207.2460022 C-137.49515101 208.79169432 -139.04141075 210.3361449 -140.58886719 211.87939453 C-142.96015212 214.24528349 -145.3260013 216.61651506 -147.69140625 218.98828125 C-149.19889789 220.49511274 -150.70669934 222.00163435 -152.21484375 223.5078125 C-152.92110901 224.21610199 -153.62737427 224.92439148 -154.3550415 225.65414429 C-155.3418692 226.63624374 -155.3418692 226.63624374 -156.34863281 227.63818359 C-156.92486389 228.21361908 -157.50109497 228.78905457 -158.0947876 229.38192749 C-160.6623221 231.74625297 -162.32868862 232.81491138 -165.82421875 233.234375 C-179.54368373 231.90668484 -188.7451966 220.25812944 -197.27734375 210.46484375 C-200.15914965 207.36457837 -203.24346323 204.56450079 -206.38671875 201.734375 C-215.92239516 193.00466577 -215.92239516 193.00466577 -218.69921875 187.859375 C-218.36921875 184.229375 -218.03921875 180.599375 -217.69921875 176.859375 C-206.80921875 176.859375 -195.91921875 176.859375 -184.69921875 176.859375 C-185.02921875 173.889375 -185.35921875 170.919375 -185.69921875 167.859375 C-185.78852429 165.29488017 -185.83679785 162.72863549 -185.84448242 160.16259766 C-185.84784103 159.45053162 -185.85119965 158.73846558 -185.85466003 158.00482178 C-185.86406581 155.67767531 -185.86610856 153.35060173 -185.8671875 151.0234375 C-185.87040968 149.37787855 -185.87377444 147.73231986 -185.87727356 146.08676147 C-185.88324079 142.64230691 -185.88511619 139.19787733 -185.88452148 135.75341797 C-185.88442056 131.39590061 -185.8980111 127.03854875 -185.91529369 122.68107033 C-185.92656387 119.27984929 -185.92843608 115.87866621 -185.92791176 112.47742844 C-185.92907181 110.87429617 -185.93337851 109.27116225 -185.94124413 107.66804886 C-186.09152141 73.84811379 -180.39480603 39.54692758 -156.69921875 13.859375 C-155.8479541 12.93439209 -155.8479541 12.93439209 -154.97949219 11.99072266 C-138.94406596 -5.20554528 -121.83318992 -16.55841386 -98.69921875 -22.140625 C-97.79429687 -22.3675 -96.889375 -22.594375 -95.95703125 -22.828125 C-63.57007172 -29.58714264 -25.89278965 -20.32181055 0 0 Z " fill="#4B7CCC" transform="translate(332.69921875,39.140625)"/>
</svg>
